<svg xmlns="http://www.w3.org/2000/svg" width="512" height="512" viewBox="0 0 512 512" fill="none"><metadata><rdf:RDF xmlns:rdf="http://www.w3.org/1999/02/22-rdf-syntax-ns#" xmlns:dc="http://purl.org/dc/elements/1.1/"><rdf:Description><dc:creator>RealFaviconGenerator</dc:creator><dc:source>https://realfavicongenerator.net</dc:source></rdf:Description></rdf:RDF></metadata><circle cx="256" cy="256" r="245" fill="#D6D5D5"></circle><path d="M252.532 5.23748C254.001 5.16261 255.472 5.12899 256.942 5.13787C323.341 5.26666 386.925 31.5436 433.502 78.1046C481.831 125.724 508.601 190.505 507.757 257.795C507.61 271.799 506.179 285.761 503.481 299.512C493.588 352.231 467.362 398.744 428.352 435.854C389.818 472.51 336.575 498.53 283.095 504.211C275.593 505.008 266.98 505.747 259.466 505.661C251.643 506.304 239.199 505.089 231.316 504.303C176.058 498.664 124.244 475.217 83.9306 437.609C34.8766 391.979 6.32264 328.999 4.58416 262.602C3.40798 196.015 28.919 131.649 75.6006 83.4251C121.782 35.4131 185.379 7.30895 252.532 5.23748ZM116.189 444.051C127.847 403.58 146.024 365.21 170.03 330.402C175.521 322.295 181.572 314.385 187.327 306.455C188.613 304.684 194.735 297.64 195.137 296.564C194.549 296.636 189.139 302.115 188.061 303.095C165.403 323.709 142.483 343.906 123.182 367.741C122.174 368.986 119.378 372.344 117.86 372.347C116.506 370.504 117.227 361.531 117.348 359.011C118.558 335.07 121.188 311.218 125.223 287.578C131.253 250.758 141.874 207.393 169.824 180.458L169.404 180.599C165.902 181.808 158.975 186.795 156.562 186.661C155.487 185.017 159.712 180.037 160.963 178.451C171.893 164.866 185.372 153.472 200.668 144.886C207.821 140.824 217.498 136.624 225.444 134.276C250.52 126.094 279.838 126.278 303.749 138.109C307.882 140.153 311.008 142.767 314.79 145.316C317.904 145.093 321.105 144.783 324.215 144.654C360.267 143.151 414.525 136.851 433.007 175.798C427.26 175.524 419.35 175.167 413.78 176.192C395.479 179.557 364.405 189.192 348.482 197.446C342.943 200.263 337.804 203.783 333.198 207.917C321.269 218.639 312.484 235.678 310.899 251.477C309.695 263.475 312.559 277.722 319.369 287.825C324.401 295.292 330.507 301.67 334.328 310.019C337.117 316.115 342.623 320.916 346.919 325.993C351.583 331.399 356.28 336.971 360.153 342.977C376.602 369.771 386.746 401.826 388.124 433.109C388.325 437.683 388.472 444.167 388.047 448.619C396.728 443.253 408.05 433.57 415.449 426.699C451.589 393.136 477.231 349.393 487.313 301.332C513.641 175.827 430.785 53.396 304.785 25.5437C286.212 21.3658 267.138 19.7537 248.112 20.7542C182.974 24.1358 124.428 52.9893 80.9405 100.653C39.1287 147.287 17.4235 208.113 20.4291 270.229C24.3935 332.22 53.1074 390.156 100.31 431.402C105.414 435.843 110.711 440.063 116.189 444.051ZM376.773 173.967C353.519 175.545 330.596 180.264 308.649 187.992C304.799 189.328 296.505 192.3 293.059 194.211C294.008 194.258 295.271 193.756 296.227 193.451C317.369 187.617 338.681 182.397 360.135 177.795C362.274 177.357 379.581 174.061 379.703 173.955C378.39 173.844 378.081 173.844 376.773 173.967ZM312.992 147.827L312.734 148.007C301.331 156.123 297.884 165.421 280.589 162.624C276.734 162.001 269.526 160.601 265.764 160.861C251.255 161.865 233.729 169.896 221.97 177.984C212.523 184.482 200.841 197.691 195.735 207.985C196.52 207.521 197.454 205.956 198.049 205.114C201.271 200.798 204.875 196.77 208.819 193.078C215.607 186.795 230.51 176.449 239.781 174.099C245.283 172.705 251.814 181.966 261.331 181.355C271.534 180.7 271.679 174.763 279.571 169.881C281.33 168.793 284.454 168.189 286.445 167.778C294.425 166.127 302.006 165.423 307.09 158.281C308.109 156.85 313.004 149.154 312.992 147.827ZM255.812 326.457C250.265 331.387 244.957 336.566 239.512 341.585C205.547 372.89 168.785 402.375 141.836 440.132C138.637 444.615 134.485 450.04 131.843 454.82C134.365 456.825 138.851 459.28 141.746 460.849C147.446 463.98 153.274 466.878 159.218 469.534C164.097 459.422 169.264 449.918 174.442 439.977C179.757 429.771 184.433 420.139 190.46 410.268C203.569 389.273 218.328 369.319 234.602 350.59C241.365 342.772 248.241 335.031 255.331 327.5C255.606 327.208 255.854 326.88 255.812 326.457Z" fill="#143B4A"></path></svg>