<svg xmlns="http://www.w3.org/2000/svg" width="512" height="512" viewBox="0 0 512 512" fill="none"><metadata><rdf:RDF xmlns:rdf="http://www.w3.org/1999/02/22-rdf-syntax-ns#" xmlns:dc="http://purl.org/dc/elements/1.1/"><rdf:Description><dc:creator>RealFaviconGenerator</dc:creator><dc:source>https://realfavicongenerator.net</dc:source></rdf:Description></rdf:RDF></metadata><ellipse cx="258" cy="250" rx="241" ry="228" fill="#F1F1F1"></ellipse><path d="M246.226 10.8441C247.312 10.7859 248.467 10.7623 249.556 10.7328C314.133 8.98487 373.707 32.4599 420.465 74.4124C471.42 120.716 501.001 184.369 502.722 251.409C504.457 316.684 478.966 379.955 431.827 427.38C388.779 470.713 327.676 499.107 264.687 500.783C203.088 502.658 143.072 482.002 96.9748 443.058C44.8021 399.584 13.1276 338.002 9.04683 272.11C4.95745 205.75 28.379 140.511 74.2776 90.4161C108.502 53.5729 153.749 26.6496 204.406 15.9524C218.852 12.9018 231.611 11.7074 246.226 10.8441ZM36.531 337.479C39.6407 329.177 42.7365 322.945 48.6058 315.931C64.4689 296.976 90.6497 286.696 115.395 295.341C125.913 299.014 135.904 306.422 140.709 316.24C147.352 329.448 144.22 348.226 128.916 354.692C123.705 356.841 117.809 356.926 112.533 354.928C104.814 352.061 99.5814 344.99 102.723 337.057C104.766 331.896 110.715 328.279 116.184 331.184C122.065 334.306 124.02 338.109 124.061 344.31C127.456 343.459 130.467 342.174 132.19 339.102C137.731 329.211 131.131 318.722 121.991 314.059C115.642 310.795 108.173 310.127 101.295 312.207C79.3864 318.647 69.8861 344.483 77.2229 363.927C84.8079 384.029 99.0439 397.133 118.974 406.349C168.744 430.225 228.655 423.426 278.634 403.749C282.576 402.199 286.547 400.677 290.512 399.187C303.254 394.404 316.036 389.725 328.861 385.147C350.175 377.576 369.063 371.772 392.042 370.66C403 370.127 411.45 368.858 422.163 372.824C400.455 379.044 379.485 387.397 359.594 397.747C353.941 400.746 347.938 404.423 342.404 407.691C328.679 415.873 314.712 423.681 300.521 431.107C267.295 448.509 241.248 458.708 202.678 458.431C189.579 458.456 176.522 457.013 163.777 454.127C159.507 453.128 155.255 452.06 151.024 450.923C159.266 455.787 167.804 459.335 176.836 462.508C203.499 471.875 227.93 474.481 255.652 468.085C282.294 461.938 303.956 451.162 326.792 436.618C338.806 428.968 349.017 420.64 360.607 412.666C382.312 397.741 409.063 382.957 435.484 377.336C442.544 375.833 449.408 375.462 456.54 375.156C482.868 330.793 493.561 279.563 487.051 228.986C485.999 220.485 483.907 208.301 481.604 199.843L353.938 172.781C332.31 168.208 309.056 163.692 287.659 158.625C287.742 154.015 287.788 149.405 287.802 144.795L386.7 128.716C404.645 125.763 426.025 122.821 443.54 119.155C439.962 113.625 432.078 104.671 427.551 99.7452C395.666 64.9998 353.293 40.4695 306.22 29.5032C288.527 25.4847 263.691 22.8497 245.409 24.0697C183.677 27.3695 125.909 54.0732 85.0104 98.214C40.8944 146.399 18.511 209.199 22.7153 272.993C24.0838 293.283 29.2654 318.256 36.531 337.479Z" fill="#094362"></path><path d="M230.204 92.6969C230.512 90.5431 230.777 87.6163 232.812 86.4275C238.108 83.3344 239.306 89.0228 239.905 92.0806C244.422 97.1688 253.613 101.027 259.594 105.598C263.555 108.626 271.482 117.542 275.189 118.855C276.582 119.349 277.813 119.717 278.591 121.004C279.395 122.34 279.167 126.387 278.588 127.82C278.194 128.786 277.568 129.451 276.572 129.879C274.914 130.589 272.283 130.575 270.456 130.742L270.383 168.724C276.476 169.573 275.549 171.134 275.447 176.431C287.861 176.356 286.362 178.397 286.309 189.689C286.289 194.108 277.717 199.772 274.212 202.035C274.216 204.607 274.07 210.506 274.328 212.87C275.212 220.913 275.993 228.882 276.721 236.939L282.172 297.489C282.999 306.992 284.482 320.282 284.734 329.646C277.317 328.956 274.424 328.736 266.872 329.397C265.339 321.123 267.868 310.127 256.052 312.304C253.322 312.808 252.001 313.108 250.251 315.247C249.254 318.581 249.559 326.442 249.221 330.333C248.692 336.398 248.169 343.475 247.011 349.427C255.748 340.526 266.518 333.32 279.749 332.813C286.948 332.539 294.742 334.413 300.127 339.165C303.969 342.498 306.226 347.171 306.389 352.118C306.581 358.825 302.917 364.554 298.171 369.232C297.506 369.885 296.807 370.505 296.076 371.095C301.07 369.239 306.491 366.46 311.873 368.618C314.805 369.793 319.942 373.933 319.531 377.138C318.115 378.524 307.024 381.987 304.34 381.873C302.553 381.804 301.034 379.847 299.369 379.413C292.002 377.541 284.886 376.797 279.399 371.154C274.967 366.595 274.676 359.106 279.849 355.123C286.776 349.792 291.389 356.39 294.176 361.431C304.082 355.615 296.92 346.125 287.467 344.537C282.94 343.758 278.273 344.764 274.54 347.322C262.973 355.281 264.416 368.911 272.273 378.688C276.36 383.776 280.061 386.319 285.899 389.369C266.835 398.689 247.553 403.387 226.577 407.332C187.053 414.758 119.235 410.306 95.1531 374.296C92.34 370.767 90.0686 366.148 88.3681 362.049C91.1197 365.76 94.339 368.728 97.9905 371.614C106.252 376.879 116.608 381.858 126.807 381.996C127.956 382.012 140.464 380.411 141.686 380.09C151.593 377.465 156.693 361.274 167.474 357.95C172.276 356.472 176.112 357.149 180.828 356.459C182.036 346.156 182.734 335.894 183.76 325.575C186.203 300.265 188.774 274.966 191.485 249.679C192.961 235.789 194.318 219.433 196.681 205.782C210.591 204.853 226.666 204.491 240.683 204.122C237.959 201.461 237.201 200.342 235.48 196.992C225.935 197.02 216.387 197.205 206.845 197.545C202.188 197.697 197.22 198.145 192.541 197.935C182.536 197.488 184.21 189.579 184.128 182.702C184.042 175.691 189.221 176.341 194.751 176.423C194.655 171.027 194.013 169.715 200.097 168.826L199.921 143.773C199.901 140.539 200.03 133.807 199.742 130.827C194.219 130.405 191.177 131.014 191.108 124.47C190.36 118.767 194.781 119.615 198.131 117.104C199.544 116.044 202.347 112.824 203.86 111.219C210.466 104.209 223.724 99.1567 230.204 92.6969ZM223.506 168.117C230.006 168.171 236.509 168.179 243.009 168.141L247.073 168.157C247.941 157.544 249.738 144.54 245.002 134.567C244.131 132.732 230.373 133.346 227.888 133.448C227.054 133.53 225.812 133.492 225.389 134.219C220.689 142.276 222.675 159.874 223.506 168.117ZM234.983 234.746C233.732 235.291 232.597 235.791 232.253 237.176C231.422 240.534 231.925 245.259 231.978 248.79L236.678 248.755C238.174 248.753 238.386 249.004 239.388 248.356C239.753 246.585 239.829 244.265 239.739 242.457C239.547 238.598 240.011 234.875 234.983 234.746ZM217.002 167.31C216.926 155.054 216.731 146.023 218.511 133.883C214.656 133.846 210.744 133.777 206.898 133.79C206.812 144.814 206.597 157.195 206.881 168.146C208.602 168.18 215.88 168.576 216.89 167.802L217.002 167.31ZM254.758 168.143L263.549 168.129C263.539 156.929 263.774 144.906 263.496 133.77L260.312 133.748L251.773 133.786C253.815 145.26 253.441 155.316 253.289 166.833C253.276 167.796 253.286 167.587 254 168.085L254.758 168.143Z" fill="#094362"></path></svg>